<svg version="1.1" id="Layer_1" xmlns="http://www.w3.org/2000/svg" xmlns:xlink="http://www.w3.org/1999/xlink" x="0px" y="0px"
	 width="100%" viewBox="0 0 1024 1024" enable-background="new 0 0 1024 1024" xml:space="preserve">
<path fill="#000000" opacity="1.000000" stroke="none" 
	d="
M890.936157,472.327759 
	C891.727966,492.222870 895.307983,511.442963 894.263062,531.041931 
	C892.393738,566.103821 887.559570,600.629028 876.750427,634.084412 
	C869.374207,656.914673 859.664307,678.813049 848.250366,699.966675 
	C834.753113,724.981262 819.005859,748.515381 800.667419,770.131531 
	C784.475037,789.218018 765.469238,805.491272 745.442017,820.555969 
	C728.753967,833.108948 711.265259,844.395996 692.421631,853.309448 
	C668.162598,864.784607 642.948120,873.709900 616.897949,880.447388 
	C595.725342,885.923401 574.345032,889.978882 552.627441,891.925171 
	C532.155396,893.759888 511.651642,897.158997 491.044891,894.900146 
	C473.207703,892.944946 455.469208,890.031921 437.726227,887.289062 
	C415.129150,883.795837 393.284454,877.631836 372.122406,868.858032 
	C347.648499,858.711060 325.454254,844.662109 303.857697,829.620056 
	C277.442596,811.221863 252.167847,791.316040 229.783310,768.110718 
	C216.602890,754.446960 204.995163,739.373108 194.691040,723.350769 
	C180.347321,701.047119 166.923965,678.264282 157.618118,653.303894 
	C152.145493,638.625122 148.057678,623.558594 144.749756,608.243347 
	C139.357742,583.279114 137.342285,558.051270 136.329147,532.543823 
	C135.486847,511.337921 135.978622,490.256897 137.991684,469.265259 
	C140.617035,441.889038 146.915909,415.170837 155.942734,389.141724 
	C163.747116,366.637543 171.749603,344.231750 182.739853,323.002258 
	C197.187485,295.094238 215.850098,270.543091 238.330826,248.500565 
	C269.032623,218.397202 304.419922,194.892731 340.479431,172.028412 
	C375.584045,149.769562 413.933777,137.190948 454.663910,130.762909 
	C486.960388,125.665863 519.097290,125.669342 551.505981,130.654480 
	C572.223816,133.841324 593.070068,136.003784 613.343750,141.612137 
	C646.130859,150.682144 678.329834,161.210236 707.616394,179.100998 
	C726.547302,190.665604 744.920654,203.089981 761.198792,218.163681 
	C776.839905,232.647552 790.798218,248.845352 803.871643,265.662659 
	C818.997314,285.119995 833.226196,305.272217 846.915833,325.776093 
	C858.356934,342.912018 866.218872,361.801819 873.379517,381.029907 
	C880.158264,399.232361 883.576721,418.155151 886.346313,437.273743 
	C888.014099,448.786530 890.013000,460.249146 890.936157,472.327759 
M425.125336,831.374329 
	C434.884705,834.131226 444.511902,837.571594 454.433380,839.490601 
	C470.733612,842.643372 487.151611,845.134094 503.778961,846.383484 
	C517.037109,847.379822 530.330383,848.478455 543.491577,847.224609 
	C558.348877,845.809143 573.177002,843.558289 587.717224,839.791260 
	C613.483521,833.115967 637.851379,823.230896 660.868652,809.778381 
	C681.744263,797.577515 702.247253,784.826294 720.900879,769.435608 
	C738.071716,755.268372 755.854187,741.823120 770.453857,724.641479 
	C787.514343,704.563721 801.296448,682.732849 811.873108,658.596130 
	C824.630066,629.483826 833.622803,599.375305 838.952454,568.087524 
	C839.788696,563.178589 839.396179,557.891846 842.790100,552.262268 
	C844.741211,562.725525 840.749023,571.686584 841.443787,580.868469 
	C845.270813,561.453674 848.700989,541.967407 849.189026,522.151733 
	C849.841370,495.664368 845.248840,469.788879 839.056641,444.154236 
	C832.093445,415.327454 820.825317,388.182007 806.870605,362.105133 
	C792.408569,335.080139 777.189331,308.462433 758.682129,283.986877 
	C745.176453,266.125763 727.520569,252.615082 708.468384,241.090454 
	C698.225830,234.894699 687.464539,229.555161 676.926025,223.850082 
	C657.019653,213.073624 636.941040,202.538727 615.780273,194.505066 
	C593.901123,186.198700 571.061157,181.653473 547.619690,180.240936 
	C538.162292,179.671051 528.705872,177.371506 519.320007,177.728073 
	C505.217651,178.263824 491.154938,180.230835 477.198975,182.643860 
	C435.900391,189.784531 396.904205,203.711517 358.826141,221.036087 
	C322.383759,237.616455 292.169952,261.853668 266.831757,292.283813 
	C248.014862,314.882172 233.333435,340.255829 220.240494,366.603271 
	C208.178818,390.875458 198.011841,415.666565 193.809265,442.648132 
	C193.070221,447.392944 192.723221,452.462585 190.042755,456.852295 
	C187.966812,455.527710 190.166763,453.503448 188.479248,451.943878 
	C188.062943,453.402466 187.597931,454.606934 187.381271,455.854492 
	C184.154312,474.435791 183.103500,493.167450 183.176819,512.011230 
	C183.218964,522.839844 182.288879,533.738770 183.576859,544.478699 
	C186.179428,566.180603 191.612976,587.352173 198.776962,607.933105 
	C209.519028,638.793457 223.231003,668.390503 239.298569,696.878113 
	C251.634460,718.749512 266.519226,738.482300 284.439056,756.273621 
	C310.767059,782.413025 341.847107,800.361145 376.127686,813.389526 
	C392.144165,819.476501 408.311493,825.166809 425.125336,831.374329 
z"/>
<path fill="#000000" opacity="1.000000" stroke="none" 
	d="
M428.752869,708.593262 
	C428.040070,720.355591 427.526733,731.834839 423.944122,742.661377 
	C421.816376,749.091370 416.056000,753.588745 411.668793,758.678345 
	C408.352509,762.525452 403.570892,761.206848 399.743958,758.764954 
	C392.651825,754.239502 387.382599,747.945435 382.278870,741.227783 
	C374.978546,731.618896 372.912842,720.015320 368.420013,709.359680 
	C366.049530,703.737488 369.013153,698.175781 370.911865,693.081726 
	C372.858459,687.859436 374.453644,682.714966 374.736542,677.197144 
	C375.955170,653.429749 377.408630,629.668884 378.190826,605.886353 
	C378.791565,587.621765 379.156921,569.297729 375.687714,551.188049 
	C375.469482,550.048950 375.248169,548.904236 374.916595,547.795532 
	C374.735474,547.189758 374.319733,546.654053 373.768951,545.645935 
	C364.714111,549.065247 355.724548,552.436707 346.754700,555.859802 
	C343.645294,557.046387 340.623016,558.378174 337.187134,558.493347 
	C332.095490,558.663940 328.593170,562.085999 325.407135,565.350525 
	C315.115601,575.895691 302.655792,571.638489 297.591919,560.025879 
	C293.199890,549.953857 288.752655,539.904663 284.199646,529.904663 
	C281.534668,524.051514 283.316254,518.462219 284.850037,512.847595 
	C285.549500,510.287140 287.859100,509.940277 290.062988,509.818848 
	C293.054932,509.653900 296.069305,509.807220 299.050323,509.549713 
	C306.774292,508.882446 313.137421,505.771088 318.483765,499.868622 
	C331.678986,485.300842 344.675171,470.588867 356.104706,454.569763 
	C359.467041,449.857178 359.269531,448.679871 354.281372,446.207947 
	C345.187256,441.701355 336.068024,437.213470 326.752258,433.198151 
	C321.166962,430.790833 314.921967,432.510773 308.973450,431.518616 
	C298.766602,429.816132 291.617493,422.752380 291.776764,412.539856 
	C291.871124,406.489746 291.190063,400.615601 290.101562,394.705261 
	C288.864258,387.986847 290.760406,385.225922 297.400177,383.222076 
	C299.958282,382.450043 300.753998,380.140350 301.703247,378.036011 
	C305.301605,370.058929 305.562653,369.583649 314.094147,371.738708 
	C319.613953,373.132996 323.053406,371.852234 326.269653,367.214478 
	C334.508423,355.334381 344.462860,344.665253 350.833771,331.414978 
	C348.474945,334.839630 346.116119,338.264282 343.603119,341.912720 
	C342.368286,339.939911 343.433655,339.008270 343.926636,338.061859 
	C353.159546,320.337250 361.296112,302.100616 369.419556,283.854126 
	C371.831970,278.435516 372.980011,273.169006 369.968719,267.584717 
	C369.033173,265.849762 368.611969,263.834503 367.982117,261.938660 
	C367.542999,260.616852 367.309814,258.820007 368.338928,258.161774 
	C371.765778,255.969833 375.281769,253.138519 379.074188,252.548492 
	C381.994904,252.094070 385.267639,251.997971 388.382019,251.782043 
	C393.378265,251.435623 397.924988,252.416718 402.036499,255.472031 
	C410.979462,262.117737 420.464691,268.115387 428.897369,275.346863 
	C441.156860,285.860046 440.091156,296.347168 428.275574,307.672089 
	C416.325043,319.126373 405.687500,331.562012 395.792419,344.826996 
	C384.558655,359.886566 374.039642,375.574249 360.743622,388.999420 
	C357.948486,391.821716 357.820435,393.765472 361.091980,396.167694 
	C368.601349,401.681458 376.488708,406.707153 383.245514,413.211243 
	C385.533264,415.413422 387.513733,414.933197 389.501678,412.433746 
	C403.623535,394.678589 417.083588,376.477448 426.408081,355.642792 
	C429.155029,349.504974 432.361816,343.422668 431.647156,336.135406 
	C431.185638,331.429016 434.870392,328.406616 439.339600,327.825989 
	C445.101654,327.077332 450.277802,327.713837 454.520050,332.405548 
	C455.639587,330.660675 453.175903,328.714996 455.579102,327.817413 
	C456.945129,327.307190 458.444977,327.238159 459.370972,328.206451 
	C469.469269,338.765717 483.408783,345.943390 488.244110,361.152985 
	C490.667236,368.775055 488.631744,378.905548 482.985687,383.650330 
	C480.776123,377.843048 487.200195,372.456482 483.345734,367.427063 
	C479.431610,377.827179 475.175415,388.326630 466.618469,396.536469 
	C450.591614,411.913208 438.265991,430.521515 423.221100,446.771851 
	C409.080292,462.045624 395.020538,477.394440 380.934082,492.718506 
	C379.824677,493.925385 378.785461,495.196777 377.776520,496.365326 
	C378.767212,498.324921 380.268250,497.756073 381.427490,497.511414 
	C396.725555,494.282501 412.004852,490.964722 427.296143,487.703491 
	C429.397827,487.255249 431.641266,485.616943 433.228149,488.967407 
	C433.937988,490.466034 435.631409,489.107666 436.789398,488.655579 
	C438.972321,487.803436 439.072083,485.941986 438.636261,484.052551 
	C437.471954,479.005493 435.776093,474.159058 433.255798,469.593689 
	C431.168182,465.812073 428.912598,462.064026 428.182343,457.700348 
	C427.138397,451.462463 427.642090,450.814697 434.137146,450.117889 
	C434.089935,446.961975 435.162659,444.544373 438.724091,447.030884 
	C448.314301,453.726501 459.739807,457.173798 469.054321,464.312958 
	C486.548065,477.721069 498.883881,494.414978 502.254395,516.765686 
	C502.568909,518.851440 503.854187,520.863342 502.774200,523.182129 
	C500.908569,522.715149 501.938568,520.077454 499.843842,519.567810 
	C497.189331,523.988037 497.831207,528.932251 498.540436,533.531494 
	C499.862885,542.107300 496.819519,549.281250 488.969391,552.376953 
	C479.677399,556.041138 471.093048,554.052612 463.158630,548.140198 
	C455.894073,542.726990 452.887085,535.729065 454.438049,526.818542 
	C454.826019,524.589661 454.269165,522.532593 453.773987,520.422058 
	C452.913788,516.755798 450.808197,515.715454 447.123810,516.509155 
	C439.892914,518.066895 433.851044,522.484070 426.744720,524.434753 
	C416.421814,527.268311 416.480438,527.592285 423.533936,535.498352 
	C429.646149,542.349365 432.581146,549.455017 429.558899,559.143921 
	C423.265137,579.321228 424.375000,600.196411 425.674500,620.982788 
	C425.944458,625.300964 426.219635,629.634827 426.145477,633.955505 
	C425.913330,647.481506 428.286621,660.830017 428.767212,674.287964 
	C429.170074,685.569946 428.752686,696.881226 428.752869,708.593262 
z"/>
<path fill="#000000" opacity="1.000000" stroke="none" 
	d="
M555.061401,528.664124 
	C545.106873,527.909851 536.272888,524.598511 528.780640,518.997375 
	C522.016479,513.940552 516.811096,506.986542 512.572144,499.599915 
	C510.767853,496.455780 511.211731,493.343414 515.824280,492.665833 
	C516.631836,492.547180 517.749023,492.450684 518.143066,491.916229 
	C523.773132,484.280518 532.442139,486.937592 539.771362,485.860901 
	C556.427368,483.414062 572.708435,479.429413 588.996094,475.391052 
	C590.856750,474.929688 592.902954,474.480347 594.391113,472.827728 
	C589.671326,460.101685 592.536316,446.846649 591.731262,433.835175 
	C591.566956,431.178894 591.716553,428.503937 591.699280,425.837738 
	C591.658020,419.467346 591.061279,419.196777 584.669067,420.506531 
	C570.377014,423.434906 556.987671,428.884399 543.752136,434.781189 
	C538.596680,437.078094 533.145020,437.276489 528.120911,435.594055 
	C508.710510,429.094025 490.994995,419.870758 478.999664,402.312500 
	C477.400970,399.972412 476.079193,397.570190 475.821136,394.495880 
	C478.674286,393.553711 479.372742,396.740631 481.783936,397.141083 
	C481.783936,394.863953 481.917633,392.626862 481.753937,390.411774 
	C481.480042,386.706024 483.007202,384.972626 486.729034,385.642761 
	C501.874634,388.369720 516.535889,384.716400 531.250793,382.186005 
	C544.517517,379.904663 557.723999,377.262817 570.930176,374.644196 
	C575.811035,373.676361 580.625122,372.360229 585.451172,371.130615 
	C589.356018,370.135773 591.026917,367.870850 590.854797,363.533966 
	C589.936768,340.408112 588.208069,317.324036 587.585388,294.178406 
	C587.328979,284.648315 583.647461,276.058105 575.939880,269.681549 
	C573.264832,267.468475 574.470276,256.379303 577.600830,253.876709 
	C586.409973,246.834732 596.053101,244.615601 607.033997,248.264038 
	C622.184082,253.297653 636.017456,260.909363 649.376343,269.423462 
	C657.839661,274.817474 661.426636,282.229431 659.671753,292.821014 
	C657.658813,304.970154 652.835144,316.425079 651.824219,328.799316 
	C651.252930,335.791656 651.428223,342.764587 651.075012,349.737091 
	C650.851868,354.144592 652.872070,355.235504 656.905334,354.458008 
	C668.011353,352.317078 679.118958,350.153748 690.283203,348.355499 
	C698.459412,347.038574 706.814697,346.739044 714.382507,342.768188 
	C716.950134,341.420929 719.414856,342.867340 722.011047,343.306366 
	C734.573853,345.430847 745.492004,351.600342 756.848267,356.717926 
	C758.364868,357.401398 759.880493,358.094940 761.431763,358.692352 
	C772.876282,363.099915 782.635986,377.957458 782.032104,390.532959 
	C779.096802,390.503448 777.998840,392.176544 776.578247,394.957520 
	C774.243896,399.527313 771.746216,404.785553 764.639038,404.618744 
	C760.897034,404.530945 757.020386,404.911194 753.202881,405.074280 
	C749.522278,405.231506 746.145935,403.396484 742.233032,407.091766 
	C738.878662,410.259552 732.932800,407.556091 728.187012,407.010040 
	C715.548462,405.555908 702.916260,406.089783 690.275269,406.695374 
	C680.300171,407.173218 670.327881,407.710724 660.354065,408.215088 
	C659.022766,408.282410 657.684692,408.253113 656.358032,408.365906 
	C647.530396,409.116547 647.917358,409.163208 647.044250,418.017578 
	C645.655334,432.102417 646.940063,446.335022 644.460815,460.341278 
	C643.867676,463.692108 645.522217,465.074280 648.694763,464.634430 
	C660.942749,462.936310 673.574341,463.339966 684.715393,456.232269 
	C690.486511,452.550415 696.702332,453.111237 703.205811,456.365662 
	C710.234253,459.882874 716.797546,464.052521 723.506714,468.045288 
	C729.890503,471.844330 734.129517,477.437744 737.708008,483.788391 
	C740.497925,488.739655 738.589172,493.928131 739.105713,498.978424 
	C739.148132,499.392609 738.812988,500.110382 738.467957,500.260193 
	C731.138794,503.441833 726.302246,510.149445 716.365540,509.989410 
	C686.103271,509.502075 655.758667,510.456757 625.857056,516.178711 
	C606.422668,519.897583 586.953003,523.711243 568.645569,531.506470 
	C563.093384,533.870605 559.490601,531.348633 555.061401,528.664124 
M687.409790,355.818451 
	C690.033997,355.315308 692.658264,354.812164 695.282471,354.309021 
	C695.206604,354.000214 695.130798,353.691406 695.054993,353.382599 
	C681.749939,355.827545 668.444885,358.272491 655.139832,360.717468 
	C655.199829,361.034546 655.259766,361.351654 655.319702,361.668762 
	C665.740601,359.768799 676.161438,357.868805 687.409790,355.818451 
z"/>
<path fill="#000000" opacity="1.000000" stroke="none" 
	d="
M686.758911,538.604919 
	C695.408508,531.945435 705.090576,536.801147 712.845154,542.949402 
	C714.270203,544.079224 715.549500,545.600525 717.172363,546.240112 
	C730.080261,551.327271 739.585571,561.046814 749.765076,569.860291 
	C755.706848,575.004700 758.008423,582.241638 760.796387,589.165649 
	C761.804199,591.668701 761.142456,594.487061 759.214233,596.138977 
	C747.745422,605.964417 744.673584,620.150146 739.947815,633.341797 
	C734.609375,648.243774 729.149292,663.075378 722.558472,677.464478 
	C720.145386,682.732849 723.106506,686.368103 726.370667,689.169067 
	C734.714111,696.328857 735.145142,705.869141 735.316528,715.574097 
	C735.362915,718.203918 733.210632,719.608459 730.992981,720.585083 
	C726.499573,722.563904 721.755005,723.835388 716.886475,723.116211 
	C705.091736,721.373962 693.274048,723.240112 681.515564,722.615784 
	C654.823181,721.198730 628.870850,726.835754 602.633911,729.903564 
	C595.393250,730.750244 587.786865,731.902039 580.716614,728.126953 
	C579.388306,729.796021 579.457703,731.839478 579.242188,733.803406 
	C578.500122,740.565308 574.749329,745.104431 568.728821,747.906372 
	C565.539307,749.390686 562.325500,749.642090 559.177551,747.679382 
	C545.086121,738.893372 533.899841,727.691406 528.766602,711.385803 
	C526.219299,703.294128 526.940735,694.886658 526.339417,686.621887 
	C525.192932,670.865112 524.528931,654.953003 521.255859,639.565308 
	C517.472595,621.778992 514.573914,603.397400 503.519806,587.987793 
	C502.844788,587.046753 502.182434,586.051025 502.680420,584.268066 
	C507.886383,583.397400 508.795898,588.352478 510.942383,591.050537 
	C513.387756,594.124329 514.973938,597.881714 517.135132,601.697937 
	C516.578430,591.805176 517.607361,590.534607 510.219757,584.763611 
	C506.688446,582.005005 504.449829,577.902588 500.151855,575.910889 
	C497.701660,574.775452 498.879730,572.499329 500.402954,571.463989 
	C510.608093,564.527222 521.234009,558.585144 534.241028,562.405090 
	C539.471741,563.941284 544.736572,565.655823 549.393555,568.668640 
	C551.123962,569.788147 552.752258,569.582336 554.618164,569.045837 
	C573.473022,563.624695 592.605042,559.451782 611.839783,555.563843 
	C628.237244,552.249207 644.888855,552.107910 661.373108,550.048828 
	C671.184509,548.823303 678.885071,544.308594 686.758911,538.604919 
M668.202881,671.546326 
	C671.353577,655.564392 674.685303,639.621277 677.308777,623.533630 
	C678.999146,613.167419 680.092712,602.766785 680.892151,592.310059 
	C681.239563,587.765747 679.030518,585.858826 674.867310,585.629150 
	C673.216736,585.538086 671.518982,585.518066 669.898010,585.792419 
	C642.682373,590.398865 615.245911,593.882507 588.711365,601.951843 
	C583.948792,603.400269 579.004089,605.078369 574.131592,605.116089 
	C568.655762,605.158508 568.075378,607.129150 569.158142,611.611816 
	C574.679138,634.469055 577.448792,657.700256 578.390930,681.172852 
	C578.565857,685.530457 581.479126,686.180481 585.049377,685.783997 
	C595.797180,684.590332 606.534180,683.281860 617.297485,682.249268 
	C632.513245,680.789551 647.417297,676.742737 662.801941,676.777893 
	C665.972351,676.785156 667.172913,674.885864 668.202881,671.546326 
z"/>
<path fill="#000000" opacity="1.000000" stroke="none" 
	d="
M310.056305,618.213501 
	C312.994263,610.798401 313.288055,602.921631 318.176514,596.497864 
	C319.961609,594.152161 317.844116,590.755920 316.261963,588.154846 
	C315.410492,586.755066 313.725830,585.959961 313.308472,584.048279 
	C323.277771,577.238464 333.423401,576.027344 344.026398,582.749634 
	C348.520966,585.599243 353.210602,588.139404 357.774384,590.882080 
	C363.258240,594.177673 367.000488,598.946838 369.265076,604.887268 
	C371.259094,610.117859 370.606201,615.176636 365.874573,618.230652 
	C359.569611,622.300110 357.370605,628.702209 354.915314,634.946777 
	C348.210419,651.999573 339.270050,667.727783 326.817780,681.153748 
	C317.662933,691.024536 307.523804,699.958313 296.502014,707.784180 
	C295.274048,708.656067 294.033264,710.119202 291.789764,709.218750 
	C293.615692,705.588928 298.026917,704.707214 300.048492,700.634277 
	C292.032166,705.393372 286.115204,712.241150 278.360107,716.083008 
	C276.328278,714.115295 279.285400,713.213806 278.382629,711.552734 
	C273.580536,714.493042 268.586121,716.913208 262.184723,717.950928 
	C284.499939,687.362488 299.392456,654.013855 310.056305,618.213501 
z"/>
<path fill="#000000" opacity="1.000000" stroke="none" 
	d="
M453.848999,656.889404 
	C449.349060,645.629517 450.145691,633.971436 448.682526,622.644653 
	C447.035614,609.895508 444.257202,597.458252 437.461700,586.302673 
	C433.752655,580.213928 434.288513,577.491821 439.609619,573.099304 
	C442.070709,571.067749 443.992554,572.289246 445.987274,573.246399 
	C455.050232,577.595581 463.337067,583.269104 470.640930,590.059204 
	C480.599457,599.317139 490.381714,608.729980 496.631226,621.306641 
	C503.662720,635.457031 503.734436,649.239014 497.109650,663.357483 
	C495.355438,667.095886 492.842590,670.406677 491.556213,674.440369 
	C490.682251,677.180786 488.013428,678.542053 485.102936,678.099426 
	C471.497223,676.030334 459.773285,671.042908 453.848999,656.889404 
z"/>
</svg>